#!OML:ASF F:\VICON\USERDATA\INSTALL\rory3\rory3.ASF
:FULLY-SPECIFIED
:DEGREES
90
root 0.2607750189940692 17.74432361801673 38.296025806839474 -3.8335326847580546 -6.03457035307481 -3.2372079624770795
lfemur -19.312694339142293 -1.9305009692723076 -19.494114042533234
ltibia 29.18416156421315
lfoot -6.825238029900564 -0.12618205113493397
ltoes -3.1676717047528284
rfemur -0.5625743873481195 1.568024882106303 25.638609851121533
rtibia 61.888168963352825
rfoot 14.575225241307699 1.3092894524583247
rtoes 18.849139820561476
lowerback 9.543616898183375 2.824041089701349 2.8775938712906264
upperback 0.47615831334717684 4.060369325453728 0.8660393197906817
thorax -4.732336801386955 2.0089683300497247 -1.154452782026572
lowerneck -16.134385000414067 -3.0633018311549027 -2.098576303324912
upperneck 19.551200357491044 -4.20388019350032 2.2112774487105034
head 8.859735462208223 -1.8808784555658966 0.5889848805685861
lclavicle -1.953240616909693e-15 9.067692338668722e-16
lhumerus -37.81236082479088 7.939647202494883 80.66579451124333
lradius 18.007801325758187
lwrist -0.31250075046409354
lhand -24.05484568006005 27.71498974781206
lfingers 7.12502
lthumb 2.1930283162502073 57.139776895362566
rclavicle -1.95324061709084e-15 9.067692337004898e-16
rhumerus -27.658037586668122 -17.462308287106104 -79.27009090303814
rradius 25.071710455709866
rwrist 2.732340438373767
rhand -17.67910738228825 23.4657026668194
rfingers 7.12502
rthumb 8.352345374212703 -6.993341701188566
91
root 0.3259837085161989 17.811967748463207 38.78720957130479 -4.2203116431081735 -6.244753578940093 -2.114642283847003
lfemur -16.14922358321472 -2.093504417125187 -21.004348016866498
ltibia 28.756497392435364
lfoot -8.1801697302651 1.4181825907134795
ltoes -3.045287214533813
rfemur -6.814529563346607 0.1649680790254875 23.769834974934923
rtibia 68.9507696578066
rfoot 11.566513040742432 -1.7876161978204879
rtoes 16.20252211799725
lowerback 9.66674997487262 2.67176920429804 1.9640496226118755
upperback 0.5501378944675406 3.741415331854172 0.6419562212079011
thorax -4.766726086885346 1.8719793578024426 -0.8909265535021543
lowerneck -16.151784678300114 -3.0106821481225716 -2.27917857115091
upperneck 19.566419822324484 -4.109614508154062 2.245641702397693
head 8.866448511647393 -1.8490688129954969 0.6372515619346453
lclavicle -1.9532406169079375e-15 9.06769233869745e-16
lhumerus -37.3598371309673 6.963729930296528 81.07585778027939
lradius 18.947346820118394
lwrist 1.403568688634191
lhand -24.501580583084507 27.18102306973445
lfingers 7.12502
lthumb 1.8810349399464676 56.8209026392862
rclavicle -1.953240617092077e-15 9.067692337006387e-16
rhumerus -27.92422212357209 -17.832412486970515 -79.13827513036608
rradius 25.088935245376856
rwrist 2.617647603655006
rhand -17.68570643786192 23.258743105964072
rfingers 7.12502
rthumb 8.367868690043561 -7.105841998420469
92
root 0.3651884123151465 17.87159526138242 39.069277543080204 -4.404587740780652 -6.128322345914915 -1.2166464578856662
lfemur -12.841698838603902 -2.165926201393475 -22.32924881231991
ltibia 27.677139269403497
lfoot -9.51984776103054 2.7649666028654485
ltoes -2.9972640295736017
rfemur -12.661668084825072 -1.1784633135694875 22.70553281613809
rtibia 72.75569348344894
rfoot 5.941047113993514 -4.928144351615387
rtoes 13.597895162434895
lowerback 9.884228845018784 2.346389019897753 1.0569564664073945
upperback 0.6444756346818242 3.1937302869857165 0.5222555178283272
thorax -4.835871584952059 1.6341748644940048 -0.39508999636688247
lowerneck -16.216605868479455 -2.9505195399124706 -2.464961092563448
upperneck 19.505849999755043 -3.9946263540438385 2.2367349936102676
head 8.855266590334526 -1.8062297712857966 0.6600184764473158
lclavicle -1.9532406169138058e-15 9.067692338657347e-16
lhumerus -36.399172961897136 5.8525626703080045 81.63116415370477
lradius 19.897552717212292
lwrist 2.6620309350589264
lhand -25.91520407277213 24.165288099539026
lfingers 7.12502
lthumb 0.6165682182938717 54.17174966125262
rclavicle -1.953240617089891e-15 9.06769233703965e-16
rhumerus -28.13358116440653 -18.087031730152994 -79.1516015365613
rradius 25.13609664720088
rwrist 2.7142589256062712
rhand -17.68669248616454 23.096163912193596
rfingers 7.12502
rthumb 8.383939409845098 -7.204712894086965
93
root 0.374344860449432 17.88829848297279 39.20034437715739 -4.450187143754729 -5.51109106186552 -0.7313387238699274
lfemur -9.942038953471206 -2.387038154157712 -23.29552280187223
ltibia 26.49292845855194
lfoot -10.690184013065512 3.8173728191846106
ltoes -2.3549190937576823
rfemur -17.69516005171436 -2.299185728446033 22.287237989673077
rtibia 73.51166349097565
rfoot 0.8958491499319958 -6.58430194711382
rtoes 11.291206103377288
lowerback 10.11366458500387 1.9277447247746524 0.4645809930389937
upperback 0.7237795527202873 2.6000538264912176 0.5621042189765428
thorax -4.903919242119385 1.3342874542719496 0.11370605113797394
lowerneck -16.295790294806675 -2.9009016337236107 -2.6682669905473113
upperneck 19.47156017469692 -3.914555128476139 2.287672457370113
head 8.858510621142148 -1.7793988437149366 0.7101192105138758
lclavicle -1.9532406169092265e-15 9.067692338709788e-16
lhumerus -35.204722532302384 4.764206372628311 82.02868447050412
lradius 20.772734461856025
lwrist 3.364783032746005
lhand -26.880983237052913 22.815876662119535
lfingers 7.12502
lthumb -0.2920747400629893 52.876214613482894
rclavicle -1.9532406170895147e-15 9.067692337054957e-16
rhumerus -28.25148526874243 -18.265264186759936 -79.22263985763809
rradius 25.194838849758163
rwrist 2.8441934024198945
rhand -17.69157282884932 23.06070626772022
rfingers 7.12502
rthumb 8.378723846749397 -7.250524172907345
94
root 0.36658513444257723 17.884632885605722 39.569444248897184 -4.410792335899359 -4.492140183445626 -0.3364433563667615
lfemur -7.8380928643075 -2.9320995579901625 -24.356800964181648
ltibia 26.408873062454123
lfoot -12.02986771302199 4.471397433454763
ltoes -1.1432233209317957
rfemur -21.939205368202487 -2.831619775245218 22.04402339290536
rtibia 71.49099402333735
rfoot -3.4267254024850082 -6.813816577763094
rtoes 8.69993474737526
lowerback 10.335936716427938 1.448302436059636 -0.10182969910527295
upperback 0.7974871156292567 1.9015335902517658 0.6703152122140028
thorax -4.949610164668272 0.9810743375793323 0.6526681549324749
lowerneck -16.416585410596092 -2.8722878119802475 -2.8840007585441843
upperneck 19.470736940614703 -3.8532886050797908 2.3330311886568253
head 8.879186631225961 -1.7569295271485366 0.7467052169763947
lclavicle -1.9532406169113903e-15 9.067692338700823e-16
lhumerus -33.81783175312518 3.662941054299041 82.35043315516556
lradius 21.582990445181963
lwrist 3.631779351096938
lhand -27.533349111987445 22.10672516100463
lfingers 7.12502
lthumb -0.8521709260945931 52.31077619820173
rclavicle -1.9532406170854375e-15 9.067692337102811e-16
rhumerus -28.451864458429053 -18.37415803073771 -79.18651484432786
rradius 25.295030499699745
rwrist 2.7483012087448864
rhand -17.803233270720078 22.70457427697127
rfingers 7.12502
rthumb 8.274213154836774 -7.616076010435267
95
root 0.3583693453107163 17.889146883577705 39.873728350983065 -4.2644353185383554 -3.4114031486537755 0.01652427425342884
lfemur -5.730374438857449 -3.4176676918332842 -25.100809491840323
ltibia 26.429118482160266
lfoot -12.813701348268884 4.839969387986208
ltoes -0.12143806014276537
rfemur -25.165434685718836 -2.7005547687823315 21.85749858563502
rtibia 66.4131584219136
rfoot -6.821620859154216 -6.768683988326105
rtoes 5.617970171252332
lowerback 10.47718242755268 1.0232400900289012 -0.52090590564702
upperback 0.8676993732216693 1.274772898166757 0.7958506706597974
thorax -4.924874141516928 0.6769781930085211 1.0328087460493356
lowerneck -16.578456469195256 -2.8581236172468247 -3.0774144211789833
upperneck 19.443197313078095 -3.796716746163476 2.352151474800003
head 8.89722026752072 -1.7349239011156767 0.7708297063913405
lclavicle -1.953240616909164e-15 9.067692338729774e-16
lhumerus -32.13056137911194 2.2915896555878317 82.7796727921715
lradius 22.438729330331014
lwrist 4.24222610607892
lhand -27.27764486703031 22.774320255755686
lfingers 7.12502
lthumb -0.6868085726928674 52.76962587705383
rclavicle -1.953240617077618e-15 9.067692337182715e-16
rhumerus -28.652067051257994 -18.55454434177206 -79.06793198341353
rradius 25.38502186630415
rwrist 2.158273369980947
rhand -17.872144511106672 22.497783273504016
rfingers 7.12502
rthumb 8.212011696092352 -7.826681801685093
96
root 0.3447786902978007 17.855009671264586 40.64178636024243 -3.950636791480897 -2.503258106860523 0.4471911864957927
lfemur -3.3535742055236435 -3.55262607224258 -25.743510443107414
ltibia 25.70907287263706
lfoot -13.621343669152356 4.630137508160438
ltoes 1.073347983710176
rfemur -27.752311523114 -2.147455581323303 21.491868378661366
rtibia 58.65792695402578
rfoot -8.633507733514373 -7.63514988010864
rtoes 2.8950740694620554
lowerback 10.548943572970455 0.6471823405980012 -1.2171275144350806
upperback 0.9443960075730824 0.6788568059686928 0.8812075489666272
thorax -4.882586053927716 0.3846677126661515 1.5953532281440899
lowerneck -16.76285811112106 -2.854749068167429 -3.2219480408413856
upperneck 19.326311285709046 -3.7512701630656418 2.3431490690157717
head 8.878975288514118 -1.718550839358984 0.779688084708756
lclavicle -1.953240616909287e-15 9.067692338734744e-16
lhumerus -30.26162124449235 0.8088209842161419 83.14545533802085
lradius 23.367129238761436
lwrist 5.123546910739526
lhand -27.10928650600342 23.185795551374913
lfingers 7.12502
lthumb -0.5850483493510391 53.10103185166228
rclavicle -1.953240617065716e-15 9.06769233729846e-16
rhumerus -28.822143980231942 -18.76433134844852 -78.87319062352823
rradius 25.374567377709848
rwrist 1.7814812934761637
rhand -17.9735547439697 22.322220207228654
rfingers 7.12502
rthumb 8.11301224215356 -7.991159420358697
